<?xml version="1.0" encoding="utf-8"?>
<svg version="1.0" xmlns="http://www.w3.org/2000/svg" width="64.000000pt" height="64.000000pt" viewBox="0 0 64.000000 64.000000" preserveAspectRatio="xMidYMid meet">
  <g transform="translate(8,8) scale(0.75)">
    <g transform="translate(0.000000,64.000000) scale(0.100000,-0.100000)" fill="#000000" stroke="none">
      <path d="M 187.245 473.989 C 273.145 485.722 320.886 482.628 399.679 469.489 C 413.608 467.166 423.582 347.681 434.531 314.829 C 451.859 262.837 471.762 335.325 479.117 354.051 C 491.666 386 479.056 448 503.622 448 L 563 350 L 556 396 C 553.04 417.856 542.374 460.161 542.616 461.144 C 544.172 467.473 527.051 507.254 526.282 508.443 C 524.156 511.734 514.834 529.834 512.671 532.603 C 511.963 533.51 492.712 560.681 490.893 562.548 C 488.427 565.079 443.699 611.131 370.48 621.571 C 310.395 632.45 214.752 617.547 205.126 614.066 C 189.497 608.416 147.409 591.027 128.086 568.333 C 106.452 542.926 112.354 552.534 110.936 551.591 C 109.95 550.935 94.912 517.572 91.268 505.517 C 88.462 496.234 82.652 471.95 81.059 464.683 C 78.958 455.099 78.108 448.548 74.253 408.197 C 69.871 362.328 71.421 366.101 72.212 364.981 C 72.667 364.335 163.699 470.773 187.245 473.989 Z"/>
      <path d="M 55.811 319 C 62.575 301.587 73.184 292.271 94.444 284.345 C 124.786 273.033 99.815 216.801 163.677 97.51 C 185.005 57.67 254.754 37.879 270.043 34.202 C 293.899 28.464 285.918 21.779 296.937 20.68 C 305.226 19.853 325.731 21.628 336.682 21.361 C 343.778 21.187 347.228 30.579 360.978 33.407 C 376.835 36.669 420.619 57.032 430.054 69.8 C 440.944 84.537 482.48 105.679 514.345 215.289 C 524.246 249.348 527 268 553 275 C 566.91 283 578.399 302.978 580.922 324.978 C 584.922 355.978 571 351 563 321 C 560 308 548.544 288.022 528.544 286.022 C 502.544 283.022 508.411 234.377 493.156 192.099 C 450.954 75.138 381.679 47.406 322.335 44.372 C 305.547 43.513 278.625 37.363 250.21 49.942 C 162.081 88.956 163.936 118.977 131.6 212.79 C 123.271 236.954 128.998 267.28 110.367 295.278 C 98.129 313.669 76.189 305.911 74.189 320.911 C 72.189 332.911 66.822 350.989 59.822 353.989 C 49.822 356.989 52.811 343 55.811 319 Z"/>
    </g>
  </g>
</svg>