<?xml version="1.0" encoding="UTF-8"?>
<svg version="1.1" xmlns="http://www.w3.org/2000/svg" width="512" height="512">
<path d="M0 0 C6.90745486 6.19151904 12.6730381 16.02754587 13.84765625 25.32421875 C13.96475441 27.78055689 14.02268619 30.24012267 14.03515625 32.69921875 C14.04933594 33.96507812 14.06351562 35.2309375 14.078125 36.53515625 C13.84765625 40.32421875 13.84765625 40.32421875 12.7734375 43.98828125 C11.79898177 47.49961118 11.53800552 48.96350344 12.84765625 52.32421875 C14.50422891 54.40209968 16.12449475 56.24960374 17.97265625 58.13671875 C18.9876689 59.20637717 20.0019933 60.27668912 21.015625 61.34765625 C21.50724121 61.86166992 21.99885742 62.37568359 22.50537109 62.90527344 C24.15235111 64.64631525 25.72526068 66.4424857 27.28515625 68.26171875 C30.39730177 71.85380961 33.61647087 75.33964588 36.84765625 78.82421875 C41.26365745 83.58865463 45.6168106 88.39361491 49.84765625 93.32421875 C50.71583984 94.33355469 50.71583984 94.33355469 51.6015625 95.36328125 C53.01946112 97.01475482 54.43395344 98.66915204 55.84765625 100.32421875 C61.64601521 95.50984437 66.9704741 90.33173443 72.28125 84.98828125 C73.15918716 84.10892914 74.03712433 83.22957703 74.94166565 82.32357788 C77.72520037 79.53447817 80.50522394 76.74190857 83.28515625 73.94921875 C85.1798229 72.04896455 87.07525255 70.14947222 88.97070312 68.25 C93.59900786 63.61071271 98.22444046 58.96857708 102.84765625 54.32421875 C102.56506958 53.51529678 102.28248291 52.70637482 101.99133301 51.87294006 C101.62487671 50.80377853 101.25842041 49.734617 100.88085938 48.63305664 C100.51577271 47.57663467 100.15068604 46.52021271 99.77453613 45.43177795 C98.49608594 41.14550556 98.23914534 37.20690809 98.34765625 32.76171875 C98.36046631 31.94453369 98.37327637 31.12734863 98.38647461 30.28540039 C98.78024476 18.50618111 103.36202122 8.4132502 112.01953125 0.28515625 C122.48426368 -8.19488555 133.35776348 -11.80754492 146.84765625 -10.67578125 C158.88724625 -8.94006054 168.37298825 -3.42363874 176.12890625 5.9375 C183.20312279 15.76101433 185.91013333 26.30494679 184.84765625 38.32421875 C182.94087885 49.1094284 178.08265221 58.97101002 169.84765625 66.32421875 C160.78422685 72.58846656 152.64456694 75.68137243 141.66015625 75.69921875 C140.88607422 75.72371094 140.11199219 75.74820313 139.31445312 75.7734375 C131.72216786 75.81074603 127.7366282 73.95387607 119.84765625 71.32421875 C104.33765625 86.83421875 88.82765625 102.34421875 72.84765625 118.32421875 C79.57569367 126.17359574 86.47662092 133.84004236 93.47265625 141.44921875 C97.04148129 145.33081997 100.55801186 149.24997656 104.01171875 153.234375 C107.89407347 157.65365111 111.8801296 161.9814934 115.84765625 166.32421875 C119.91653591 164.98531391 123.92508326 163.55525607 127.91796875 162.0078125 C137.56952191 158.58874002 149.51825991 159.18302942 158.84765625 163.32421875 C170.72483658 169.16277141 177.90679316 177.05332522 182.84765625 189.32421875 C186.58879595 200.4577066 185.51682059 212.41436914 180.59375 223.02734375 C174.22434094 234.34302416 165.70046709 240.43865156 153.84765625 245.32421875 C142.90474979 248.28362113 132.1469368 246.43193763 121.84765625 242.32421875 C119.85118643 241.64705355 117.85202731 240.97762606 115.84765625 240.32421875 C111.65467172 244.40250157 107.6821065 248.59394425 103.86328125 253.0234375 C101.40285356 255.83194895 98.87790633 258.57883754 96.34765625 261.32421875 C92.75672531 265.22365099 89.22142139 269.16182964 85.75 273.16796875 C81.52613562 277.95559327 77.17442081 282.62971833 72.84765625 287.32421875 C77.72490062 293.20396925 82.98652503 298.59302692 88.40234375 303.9765625 C89.30389191 304.87669571 90.20544006 305.77682892 91.13430786 306.70423889 C93.50963842 309.07494698 95.8871103 311.4434639 98.26568604 313.81091309 C100.70110342 316.23602603 103.13362537 318.6640396 105.56640625 321.09179688 C110.32418394 325.83859003 115.08481005 330.58251156 119.84765625 335.32421875 C120.65657822 335.04163208 121.46550018 334.75904541 122.29893494 334.46789551 C123.36809647 334.10143921 124.437258 333.73498291 125.53881836 333.35742188 C126.59524033 332.99233521 127.65166229 332.62724854 128.74009705 332.25109863 C133.02636944 330.97264844 136.96496691 330.71570784 141.41015625 330.82421875 C142.22734131 330.83702881 143.04452637 330.84983887 143.88647461 330.86303711 C155.66569389 331.25680726 165.7586248 335.83858372 173.88671875 344.49609375 C182.36676055 354.96082618 185.97941992 365.83432598 184.84765625 379.32421875 C183.11193554 391.36380875 177.59551374 400.84955075 168.234375 408.60546875 C158.41086067 415.67968529 147.86692821 418.38669583 135.84765625 417.32421875 C125.0624466 415.41744135 115.20086498 410.55921471 107.84765625 402.32421875 C101.58340844 393.26078935 98.49050257 385.12112944 98.47265625 374.13671875 C98.44816406 373.36263672 98.42367188 372.58855469 98.3984375 371.79101562 C98.36112897 364.19873036 100.21799893 360.2131907 102.84765625 352.32421875 C87.66765625 337.14421875 72.48765625 321.96421875 56.84765625 306.32421875 C55.19765625 307.97421875 53.54765625 309.62421875 51.84765625 311.32421875 C50.86152344 312.29294922 50.86152344 312.29294922 49.85546875 313.28125 C46.0030843 317.07768695 42.3480884 320.9680789 38.8203125 325.06640625 C36.41563947 327.81868548 33.94766598 330.51041375 31.47265625 333.19921875 C25.09485476 340.13586457 25.09485476 340.13586457 18.80078125 347.1484375 C17.61321849 348.47138241 16.40016815 349.7727332 15.14453125 351.03125 C13.52218795 352.63338292 13.52218795 352.63338292 11.84765625 355.32421875 C11.95771928 358.51604652 12.45986114 361.05404927 13.38671875 364.08984375 C15.9494554 376.51260108 13.31326762 388.41086898 6.5625 398.94140625 C-0.38874376 408.60030989 -10.10448465 415.01471726 -21.953125 417.078125 C-35.75480191 418.62254 -47.37126813 415.16102717 -58.3046875 406.6484375 C-64.25541173 401.31448699 -69.07784555 394.10358698 -71.15234375 386.32421875 C-71.2421875 384.15527344 -71.2421875 384.15527344 -71.15234375 381.91015625 C-70.86997354 374.87472715 -70.86997354 374.87472715 -73.15234375 368.32421875 C-79.34883227 362.71780588 -87.36472065 359.42277875 -94.859375 355.90625 C-99.53950734 353.65778784 -103.9904238 351.07706674 -108.46484375 348.44921875 C-110.16433131 347.47345855 -111.86488356 346.49955076 -113.56640625 345.52734375 C-115.42840179 344.45966397 -117.29037969 343.39195343 -119.15234375 342.32421875 C-123.88050412 339.61412507 -128.60950025 336.90550015 -133.33984375 334.19921875 C-133.93628693 333.85795959 -134.5327301 333.51670044 -135.14724731 333.1651001 C-145.10450918 327.47053269 -155.10273406 321.8541627 -165.15234375 316.32421875 C-165.60689941 316.72036377 -166.06145508 317.11650879 -166.52978516 317.5246582 C-169.77123923 320.3300096 -172.98433933 323.08862952 -176.52734375 325.51171875 C-177.19507813 325.97964844 -177.8628125 326.44757813 -178.55078125 326.9296875 C-185.34579074 330.57205745 -191.86712383 331.86124283 -199.52734375 331.76171875 C-200.35806396 331.75342041 -201.18878418 331.74512207 -202.04467773 331.73657227 C-213.10054912 331.43345002 -221.78903642 327.57432135 -230.15234375 320.32421875 C-239.32939118 310.5494326 -243.73096519 299.61222287 -243.39453125 286.2109375 C-242.37685597 274.08090476 -237.70472308 264.32770647 -228.83984375 255.94921875 C-218.59054014 247.45743579 -207.31180984 244.3452599 -194.15234375 245.32421875 C-191.08346793 245.83939906 -188.16738047 246.53338945 -185.15234375 247.32421875 C-184.87833237 246.58677429 -184.60432098 245.84932983 -184.32200623 245.08953857 C-183.22590871 242.49814126 -182.01649365 240.39819421 -180.43774414 238.07910156 C-179.62032494 236.87063568 -179.62032494 236.87063568 -178.78639221 235.63775635 C-178.19688278 234.77632019 -177.60737335 233.91488403 -177 233.02734375 C-176.385233 232.12030701 -175.770466 231.21327026 -175.1370697 230.27874756 C-173.16744295 227.37418784 -171.19151879 224.47398535 -169.21484375 221.57421875 C-166.64071036 217.78946692 -164.06940499 214.00280704 -161.5 210.21484375 C-160.87582184 209.29521851 -160.25164368 208.37559326 -159.60855103 207.42810059 C-153.99770112 199.14015806 -148.54189046 190.75734843 -143.15234375 182.32421875 C-140.0081816 183.49885697 -137.31366226 184.72998657 -134.6015625 186.70703125 C-133.98603516 187.15175781 -133.37050781 187.59648437 -132.73632812 188.0546875 C-132.11048828 188.51488281 -131.48464844 188.97507813 -130.83984375 189.44921875 C-129.87208008 190.15111328 -129.87208008 190.15111328 -128.88476562 190.8671875 C-127.30385481 192.01481165 -125.72762074 193.16887352 -124.15234375 194.32421875 C-125.40905743 197.70640136 -126.83812438 200.58911699 -128.86694336 203.56933594 C-129.68436256 204.77780182 -129.68436256 204.77780182 -130.51829529 206.01068115 C-131.10780472 206.87211731 -131.69731415 207.73355347 -132.3046875 208.62109375 C-132.9194545 209.52813049 -133.5342215 210.43516724 -134.1676178 211.36968994 C-136.13724455 214.27424966 -138.11316871 217.17445215 -140.08984375 220.07421875 C-145.12678293 227.4800373 -150.15455094 234.89191155 -155.15234375 242.32421875 C-156.01753632 243.61066284 -156.01753632 243.61066284 -156.90020752 244.9230957 C-158.49550597 247.30559635 -160.07831842 249.69581633 -161.65625 252.08984375 C-162.1312645 252.79816345 -162.60627899 253.50648315 -163.09568787 254.23626709 C-164.17759635 255.89275815 -165.17510875 257.60389892 -166.15234375 259.32421875 C-165.82234375 259.98421875 -165.49234375 260.64421875 -165.15234375 261.32421875 C-152.7918305 254.45971943 -140.4659362 247.553041 -128.27734375 240.38671875 C-118.48653682 234.63129549 -108.5870867 229.09221709 -98.64135742 223.61132812 C-91.76188916 219.80950346 -84.95394518 215.9250532 -78.28686523 211.76049805 C-74.35115318 209.32421875 -74.35115318 209.32421875 -72.15234375 209.32421875 C-72.15234375 205.36421875 -72.15234375 201.40421875 -72.15234375 197.32421875 C-73.80234375 196.66421875 -75.45234375 196.00421875 -77.15234375 195.32421875 C-78.87168419 194.43046618 -80.57543417 193.50631742 -82.265625 192.55859375 C-83.25353027 192.0056665 -84.24143555 191.45273926 -85.25927734 190.88305664 C-86.31711426 190.28614014 -87.37495117 189.68922363 -88.46484375 189.07421875 C-89.57424316 188.45087646 -90.68364258 187.82753418 -91.82666016 187.18530273 C-100.25701706 182.43270247 -108.61735093 177.56554535 -116.96118164 172.6628418 C-125.80222786 167.486553 -134.74466176 162.5021512 -143.71826172 157.56079102 C-150.9265686 153.58703722 -158.06125946 149.50363193 -165.15234375 145.32421875 C-165.79171875 146.02546875 -166.43109375 146.72671875 -167.08984375 147.44921875 C-175.63717262 155.92451957 -187.13290539 161.35554113 -199.21484375 161.57421875 C-211.43052838 161.39385294 -221.42477155 157.51220751 -230.44140625 149.21875 C-239.58502969 139.54431696 -243.69783555 128.37560192 -243.40234375 115.15234375 C-242.35922734 103.35208935 -237.01866634 92.24115289 -228.15234375 84.32421875 C-215.92394607 75.87248267 -204.68031252 74.05623108 -190.15234375 75.32421875 C-182.61381771 76.847503 -176.93947125 80.39530254 -171.15234375 85.32421875 C-170.07626119 86.22224207 -168.99939298 87.11932452 -167.921875 88.015625 C-167.00792969 88.77746094 -166.09398437 89.53929687 -165.15234375 90.32421875 C-151.69974712 83.05549273 -138.34594188 75.63955917 -125.09277344 68.01367188 C-121.25447652 65.8083402 -117.41213268 63.61011686 -113.56610107 61.41830444 C-110.56152288 59.7053325 -107.56252038 57.98390942 -104.57421875 56.24267578 C-99.06117601 53.04185074 -93.5486011 49.97728323 -87.76953125 47.26953125 C-78.60183776 43.38063781 -78.60183776 43.38063781 -72.19726562 36.28515625 C-71.27895617 32.44926583 -71.25218338 28.73086321 -71.2890625 24.8046875 C-71.34137176 15.74356067 -65.91281065 7.8237244 -59.96484375 1.32421875 C-42.43924558 -14.70856867 -18.26595807 -14.22158986 0 0 Z M-45.46484375 19.69921875 C-49.56951048 24.84373438 -50.81964281 29.76244465 -50.15234375 36.32421875 C-47.87787914 44.11460053 -43.71228899 48.61289996 -36.83984375 52.69921875 C-30.16530826 54.2514363 -23.99422094 54.10585082 -17.97265625 50.65625 C-12.93336016 46.96869642 -9.44008541 42.5053787 -8.15234375 36.32421875 C-7.64061513 30.79754964 -8.2620771 26.07830221 -11.15234375 21.32421875 C-15.4207674 16.74579785 -19.3625376 12.66219854 -25.82421875 12.0859375 C-34.68212251 11.8723586 -39.33018602 13.0643731 -45.46484375 19.69921875 Z M127.47265625 16.51171875 C122.99622924 21.30789054 120.65319822 25.69395804 120.34765625 32.32421875 C120.63030743 38.26901131 122.41692513 42.7322069 126.49609375 47.08203125 C132.06936475 52.11987883 136.76711531 53.8300876 144.2890625 53.62890625 C149.41851346 53.01807087 153.13154375 51.18240593 156.640625 47.3828125 C161.86031541 40.65052772 162.8027672 34.79143831 161.84765625 26.32421875 C159.50402059 20.28522396 155.36812676 16.55385007 149.97265625 13.13671875 C142.20633593 10.16724333 134.13437209 11.53651325 127.47265625 16.51171875 Z M-69.3125 62.11328125 C-70.40369141 62.71785156 -71.49488281 63.32242188 -72.61914062 63.9453125 C-73.81782847 64.61306564 -75.01639294 65.28104028 -76.21484375 65.94921875 C-76.82191162 66.28679199 -77.42897949 66.62436523 -78.05444336 66.97216797 C-87.46473342 72.20737458 -96.78746127 77.57850886 -106.06835938 83.0402832 C-113.13995333 87.18777539 -120.27862072 91.20235595 -127.45565796 95.16320801 C-130.30509346 96.74004889 -133.14546035 98.33314781 -135.98828125 99.921875 C-139.68938142 101.98427257 -143.40630722 103.97945283 -147.19140625 105.8828125 C-154.00245292 109.20359141 -154.00245292 109.20359141 -158.359375 115.1015625 C-158.71389044 118.62308252 -158.81641731 120.15785657 -157.15234375 123.32421875 C-151.43432726 128.12594784 -144.46180018 131.45352431 -137.90234375 134.94921875 C-127.88772379 140.35115625 -117.99419825 145.93794562 -108.13232422 151.61279297 C-104.76863067 153.54458813 -101.40044816 155.46845426 -98.03125 157.390625 C-97.41560181 157.74194489 -96.79995361 158.09326477 -96.16564941 158.45523071 C-93.71804336 159.85192857 -91.27041768 161.2485916 -88.82244873 162.64465332 C-87.11829661 163.61671677 -85.41461376 164.58960278 -83.7109375 165.5625 C-82.08067627 166.4918335 -82.08067627 166.4918335 -80.41748047 167.43994141 C-78.18447577 168.72858581 -75.96253078 170.03653537 -73.75048828 171.36083984 C-72.67782715 172.00230957 -71.60516602 172.6437793 -70.5 173.3046875 C-69.54230713 173.88500732 -68.58461426 174.46532715 -67.59790039 175.06323242 C-65.16652769 176.55336277 -65.16652769 176.55336277 -62.15234375 176.32421875 C-60.79600257 174.67622174 -59.46589108 173.00652341 -58.15234375 171.32421875 C-47.03013362 162.49134523 -35.18125057 159.90078364 -21.15234375 161.32421875 C-17.86266204 162.24252676 -14.78421046 163.3140511 -11.640625 164.64453125 C-9.23594312 165.55961115 -9.23594312 165.55961115 -7.28338623 164.6390686 C-4.67141345 163.02748551 -2.732844 161.14393529 -0.56738281 158.96630859 C0.3332489 158.06552582 1.23388062 157.16474304 2.1618042 156.23666382 C3.13532106 155.25293467 4.1087275 154.26909625 5.08203125 153.28515625 C6.08478786 152.27866747 7.08798847 151.27262086 8.09161377 150.26699829 C10.72639438 147.62459728 13.35511236 144.97624447 15.98260498 142.32659912 C18.66705313 139.62165823 21.35720247 136.92240054 24.046875 134.22265625 C29.31939243 128.92871701 34.58551682 123.62847592 39.84765625 118.32421875 C38.0473959 114.46291026 35.56672976 111.64443312 32.66015625 108.57421875 C31.65555323 107.49674297 30.65164572 106.4186183 29.6484375 105.33984375 C28.92068115 104.55963867 28.92068115 104.55963867 28.17822266 103.76367188 C26.5310379 101.98168998 24.93351219 100.16087915 23.34765625 98.32421875 C20.44679846 94.97921049 17.46932409 91.70824875 14.47265625 88.44921875 C10.92014251 84.58396652 7.37165971 80.71554505 3.84765625 76.82421875 C3.14640625 76.05078125 2.44515625 75.27734375 1.72265625 74.48046875 C-0.0074477 72.49084921 -1.60216078 70.45572033 -3.15234375 68.32421875 C-7.32223634 69.67230134 -7.32223634 69.67230134 -11.3671875 71.34765625 C-21.32922234 75.67630621 -32.62223069 75.49462961 -43.15234375 73.32421875 C-65.7455709 106.76170808 -65.7455709 106.76170808 -88.15234375 140.32421875 C-89.90911303 139.20874091 -91.6655615 138.09275782 -93.421875 136.9765625 C-94.40003174 136.35515381 -95.37818848 135.73374512 -96.38598633 135.09350586 C-99.33488619 133.20746956 -102.25205996 131.28386996 -105.15234375 129.32421875 C-103.88983696 125.93770567 -102.44830532 123.01387999 -100.45361328 120.00317383 C-99.64103561 118.76951836 -99.64103561 118.76951836 -98.81204224 117.51094055 C-98.22566986 116.63076767 -97.63929749 115.75059479 -97.03515625 114.84375 C-96.42276093 113.91688889 -95.8103656 112.99002777 -95.17941284 112.03507996 C-93.21627815 109.06614015 -91.2468883 106.10140921 -89.27734375 103.13671875 C-87.99047803 101.19232685 -86.70401576 99.24766788 -85.41796875 97.30273438 C-84.14456782 95.37888205 -82.87113055 93.45505377 -81.59765625 91.53125 C-80.97360901 90.58734406 -80.34956177 89.64343811 -79.706604 88.67092896 C-76.6699991 84.08644395 -73.61122766 79.52063511 -70.49511719 74.98974609 C-69.92864471 74.1599675 -69.36217224 73.3301889 -68.77853394 72.4752655 C-67.71487007 70.91991808 -66.64293568 69.370184 -65.56155396 67.82710266 C-64.34644466 66.04397089 -63.23783146 64.18909567 -62.15234375 62.32421875 C-62.64734375 60.83921875 -62.64734375 60.83921875 -63.15234375 59.32421875 C-65.27983476 59.32421875 -67.53256914 61.12687036 -69.3125 62.11328125 Z M-214.9453125 103.265625 C-220.16500291 109.99790978 -221.1074547 115.85699919 -220.15234375 124.32421875 C-217.84421299 130.2717258 -213.77439795 134.14625152 -208.359375 137.40234375 C-203.31169598 139.51075481 -196.95825905 139.13246931 -191.765625 137.63671875 C-186.1560408 135.0723374 -182.93540164 131.38088941 -179.83984375 126.07421875 C-178.17271938 119.40572129 -178.37238383 113.17767691 -181.81640625 107.14453125 C-185.12267426 102.6394994 -189.63377534 98.60760675 -195.15234375 97.32421875 C-202.92369363 96.46073543 -209.45813112 97.32416717 -214.9453125 103.265625 Z M52.86080933 137.07055664 C52.04806549 137.8877417 51.23532166 138.70492676 50.39794922 139.546875 C49.47714569 140.46782959 48.55634216 141.38878418 47.6076355 142.33764648 C46.60159822 143.35389829 45.59567022 144.3702583 44.58984375 145.38671875 C43.56180675 146.41848464 42.5333282 147.44981075 41.50442505 148.48071289 C38.7940052 151.1987789 36.089644 153.922797 33.38647461 156.64807129 C30.62845108 159.42653212 27.86477628 162.19935884 25.1015625 164.97265625 C19.678027 170.41765898 14.2608757 175.86895802 8.84765625 181.32421875 C9.05261719 181.9996875 9.25757813 182.67515625 9.46875 183.37109375 C9.73816406 184.263125 10.00757813 185.15515625 10.28515625 186.07421875 C10.55199219 186.9559375 10.81882812 187.83765625 11.09375 188.74609375 C14.27499999 199.62497974 13.99650855 210.41383233 9.52734375 220.87109375 C8.61197671 223.24676097 8.61197671 223.24676097 9.5385437 225.19671631 C11.12445975 227.77406558 12.96650059 229.68238398 15.11376953 231.81738281 C15.99453156 232.69799377 16.87529358 233.57860474 17.78274536 234.48590088 C18.74437976 235.43732306 19.70612345 236.38863478 20.66796875 237.33984375 C21.65203732 238.32018004 22.63566367 239.30096043 23.61886597 240.28216553 C26.20208339 242.85776342 28.79125137 245.42729732 31.38171387 247.99560547 C34.02633245 250.61972942 36.66526635 253.24955646 39.3046875 255.87890625 C44.48013697 261.03293545 49.66188747 266.18057032 54.84765625 271.32421875 C57.82747602 269.89935312 59.81244026 268.56913141 62.0546875 266.12890625 C62.63758545 265.49960205 63.2204834 264.87029785 63.82104492 264.22192383 C64.42795166 263.55443115 65.0348584 262.88693848 65.66015625 262.19921875 C66.28962158 261.51561279 66.91908691 260.83200684 67.56762695 260.12768555 C71.1309689 256.24624586 74.64751451 252.32866546 78.0859375 248.3359375 C80.42237913 245.66793874 82.8223441 243.05956843 85.22265625 240.44921875 C85.69074707 239.93842773 86.15883789 239.42763672 86.64111328 238.90136719 C88.91070786 236.42558837 91.18889042 233.95973011 93.484375 231.5078125 C94.28488281 230.64285156 95.08539063 229.77789062 95.91015625 228.88671875 C96.62300781 228.12488281 97.33585937 227.36304688 98.0703125 226.578125 C100.00413721 224.12578026 101.10913846 222.36544418 101.84765625 219.32421875 C101.20724541 217.31565747 100.53548568 215.31703964 99.84765625 213.32421875 C99.54362095 210.03050299 99.56818602 206.75479635 99.59765625 203.44921875 C99.58605469 202.15951172 99.58605469 202.15951172 99.57421875 200.84375 C99.58697883 196.63930427 99.83443448 192.96835812 101.03125 188.92578125 C102.18545878 185.50951697 102.18545878 185.50951697 100.8984375 183.21484375 C100.32480469 182.6734375 99.75117188 182.13203125 99.16015625 181.57421875 C98.50402344 180.91679687 97.84789062 180.259375 97.171875 179.58203125 C96.40488281 178.83695313 95.63789063 178.091875 94.84765625 177.32421875 C93.04596542 175.37396271 91.25554333 173.41639239 89.47265625 171.44921875 C88.52025358 170.41209663 87.56712946 169.37563656 86.61328125 168.33984375 C82.65645466 164.03275865 78.75322769 159.67774103 74.84765625 155.32421875 C72.6086313 152.83554642 70.36881028 150.34764061 68.125 147.86328125 C66.52245396 146.07656611 64.93239307 144.27861293 63.3515625 142.47265625 C62.54589844 141.55742187 61.74023438 140.6421875 60.91015625 139.69921875 C60.17925781 138.86132812 59.44835937 138.0234375 58.6953125 137.16015625 C56.14463513 134.62565653 55.54619216 134.71024103 52.86080933 137.07055664 Z M-45.15234375 189.32421875 C-49.03522683 194.71711192 -50.42420685 199.65311662 -50.15234375 206.32421875 C-48.74394505 212.95061918 -45.52700856 217.61446008 -40.02734375 221.57421875 C-35.01052501 224.20616862 -29.46517808 225.02834033 -23.91015625 223.84765625 C-17.6541741 221.69937559 -13.08234018 218.35455888 -9.9453125 212.375 C-7.85986532 206.98160213 -7.45466307 201.50153062 -9.33984375 196.01171875 C-12.06518572 189.93775033 -15.84792108 185.76192885 -22.15234375 183.32421875 C-30.99130022 181.2045995 -38.62103305 182.79290805 -45.15234375 189.32421875 Z M125.41015625 189.76171875 C120.91255414 195.66715753 119.96090312 200.97202507 120.84765625 208.32421875 C122.6790085 214.54204346 126.50725143 218.7794959 131.84765625 222.32421875 C137.44418239 224.88929323 142.88864114 225.09451569 148.78515625 223.38671875 C154.07766728 221.24697308 157.55842245 216.85204184 160.84765625 212.32421875 C162.62831574 206.98224029 162.84788235 200.61411906 161.19921875 195.19140625 C158.28434126 189.63569959 153.47540795 185.52860495 147.84765625 182.94921875 C139.07568688 181.12172513 131.47179246 182.99042757 125.41015625 189.76171875 Z M-69.74609375 232.859375 C-70.67969727 233.41351074 -71.61330078 233.96764648 -72.57519531 234.53857422 C-73.5906543 235.14846191 -74.60611328 235.75834961 -75.65234375 236.38671875 C-77.84362543 237.68470319 -80.03638855 238.98018924 -82.23046875 240.2734375 C-82.79892517 240.60869446 -83.36738159 240.94395142 -83.95306396 241.28936768 C-90.04214619 244.86867528 -96.2172329 248.28904217 -102.40234375 251.69921875 C-112.00643693 257.00353355 -121.56697717 262.37574701 -131.08984375 267.82421875 C-132.2200293 268.47052246 -133.35021484 269.11682617 -134.51464844 269.78271484 C-139.98647803 272.91817552 -145.45039965 276.06728349 -150.90625 279.23046875 C-152.38266968 280.08608398 -152.38266968 280.08608398 -153.88891602 280.95898438 C-156.04265941 282.1344424 -156.04265941 282.1344424 -157.15234375 283.32421875 C-157.9300172 287.1544152 -158.04953952 290.50932921 -157.15234375 294.32421875 C-154.23180073 297.49487002 -150.66799127 299.16963234 -146.83984375 301.07421875 C-145.76476562 301.65365234 -144.6896875 302.23308594 -143.58203125 302.83007812 C-141.29067139 304.06297245 -138.99000301 305.27869605 -136.68115234 306.47851562 C-130.94191575 309.48035793 -125.30578122 312.66472817 -119.65234375 315.82421875 C-117.38283797 317.0781711 -115.11330677 318.33207743 -112.84375 319.5859375 C-105.37278912 323.73647132 -97.99895832 328.04581826 -90.63085938 332.37548828 C-81.88528176 337.50664107 -73.04412888 342.45170013 -64.15234375 347.32421875 C-63.70358887 346.92807373 -63.25483398 346.53192871 -62.79248047 346.1237793 C-50.23909847 335.17839236 -38.79120143 331.12308651 -22.26855469 332.09521484 C-17.52837048 332.60816971 -13.44642986 334.37623929 -9.15234375 336.32421875 C-7.15857059 337.00928299 -5.15975806 337.68022167 -3.15234375 338.32421875 C-2.60707031 337.71835937 -2.06179688 337.1125 -1.5 336.48828125 C0.0962103 334.71471426 1.69257702 332.94128804 3.2890625 331.16796875 C4.88137899 329.39818798 6.47270523 327.62751512 8.0625 325.85546875 C12.17199547 321.27780291 16.30837797 316.72696625 20.47265625 312.19921875 C24.66867561 307.63393814 28.78932702 303.01212172 32.84765625 298.32421875 C34.1594234 296.82357783 35.47191411 295.32356906 36.78515625 293.82421875 C37.66494141 292.81875 37.66494141 292.81875 38.5625 291.79296875 C38.98660156 291.30828125 39.41070312 290.82359375 39.84765625 290.32421875 C38.32958345 286.74942885 36.23190914 284.46610151 33.48974609 281.73925781 C32.58896332 280.8386261 31.68818054 279.93799438 30.76010132 279.0100708 C29.77637217 278.03655394 28.79253375 277.0631475 27.80859375 276.08984375 C26.80210497 275.08708714 25.79605836 274.08388653 24.79043579 273.08026123 C22.14803478 270.44548062 19.49968197 267.81676264 16.85003662 265.18927002 C14.14509573 262.50482187 11.44583804 259.81467253 8.74609375 257.125 C3.45215451 251.85248257 -1.84808658 246.58635818 -7.15234375 241.32421875 C-8.16554688 241.63166016 -8.16554688 241.63166016 -9.19921875 241.9453125 C-10.09125 242.21472656 -10.98328125 242.48414063 -11.90234375 242.76171875 C-13.22492188 243.16197266 -13.22492188 243.16197266 -14.57421875 243.5703125 C-26.12149756 246.94701676 -38.15875539 246.34152014 -49.15234375 241.32421875 C-54.18334325 238.256235 -58.8565228 235.26795017 -62.15234375 230.32421875 C-65.64172596 230.32421875 -66.78892714 231.08396814 -69.74609375 232.859375 Z M-216.52734375 275.88671875 C-220.6062549 282.00508547 -220.88405834 287.02583477 -220.15234375 294.32421875 C-218.39134691 301.03383961 -213.98266753 304.86433462 -208.15234375 308.32421875 C-202.47212891 310.2176237 -196.41132706 310.24553782 -190.90234375 307.76171875 C-185.93633863 304.92687372 -182.66726478 300.87204048 -179.77734375 296.01171875 C-178.23753842 289.39055581 -178.34818247 283.14572954 -181.7421875 277.1484375 C-184.96145231 272.9839038 -189.18226435 269.98091188 -194.15234375 268.32421875 C-203.84539861 267.31901306 -209.87193375 268.70588165 -216.52734375 275.88671875 Z M-45.52734375 360.69921875 C-49.59125901 365.88954531 -50.71828805 370.75926488 -50.15234375 377.32421875 C-48.77756308 384.75102304 -44.10990233 388.99635463 -38.15234375 393.32421875 C-32.81036529 395.10487824 -26.44224406 395.32444485 -21.01953125 393.67578125 C-15.46382459 390.76090376 -11.35672995 385.95197045 -8.77734375 380.32421875 C-7.26430194 373.06161805 -8.26052107 367.58299791 -12.15234375 361.32421875 C-16.12645114 356.89808019 -20.39671872 353.74151042 -26.40234375 353.07421875 C-34.44292913 352.68199507 -40.05865892 354.74178673 -45.52734375 360.69921875 Z M125.47265625 360.76171875 C120.89779512 366.65433879 119.96847934 371.94138703 120.84765625 379.32421875 C122.45903976 385.10684187 125.72570357 388.79150134 130.640625 392.12890625 C135.62913559 394.83064827 140.44557512 395.87036908 146.03515625 394.69921875 C152.80950759 392.58475919 157.29752679 388.54385742 160.93359375 382.52734375 C163.03144422 377.47098622 162.60181521 371.19765986 161.23046875 365.97265625 C158.86908997 360.5602925 154.858984 357.29808676 149.84765625 354.32421875 C140.49725977 351.20741992 132.00813884 353.53164381 125.47265625 360.76171875 Z " fill="#282C3C" transform="translate(285.15234375,52.67578125)"/>
</svg>
